<?xml version="1.0"?>
<svg xmlns="http://www.w3.org/2000/svg" xmlns:xlink="http://www.w3.org/1999/xlink" version="1.1" id="Capa_1" x="0px" y="0px" viewBox="0 0 512 512" style="enable-background:new 0 0 512 512;" xml:space="preserve" width="512px" height="512px" class=""><g><g>
	<g>
		<path d="M136,40H88c-4.418,0-8,3.582-8,8v48c0,4.418,3.582,8,8,8h48c4.418,0,8-3.582,8-8V48C144,43.582,140.418,40,136,40z     M128,88H96V56h32V88z" data-original="#000000" class="active-path" data-old_color="#000000" fill="#E31837"/>
	</g>
</g><g>
	<g>
		<rect x="160" y="48" width="16" height="16" data-original="#000000" class="active-path" data-old_color="#000000" fill="#E31837"/>
	</g>
</g><g>
	<g>
		<rect x="192" y="48" width="16" height="16" data-original="#000000" class="active-path" data-old_color="#000000" fill="#E31837"/>
	</g>
</g><g>
	<g>
		<rect x="160" y="80" width="96" height="16" data-original="#000000" class="active-path" data-old_color="#000000" fill="#E31837"/>
	</g>
</g><g>
	<g>
		<path d="M471.998,104c0-2.047-0.781-4.094-2.342-5.656l-96-96c-1.5-1.499-3.534-2.342-5.654-2.342c-0.001,0-0.001,0-0.002,0V0H64    C50.745,0,40,10.745,40,24v464c0,13.255,10.745,24,24,24h384c13.255,0,24-10.745,24-24V104H471.998z M376,27.312L444.688,96H384    c-4.418,0-8-3.582-8-8V27.312z M456,488c0,4.418-3.582,8-8,8H64c-4.418,0-8-3.582-8-8V24c0-4.418,3.582-8,8-8h296v72    c0,13.255,10.745,24,24,24h72V488z" data-original="#000000" class="active-path" data-old_color="#000000" fill="#E31837"/>
	</g>
</g><g>
	<g>
		<path d="M256,128c-70.692,0-128,57.308-128,128s57.308,128,128,128c70.658-0.084,127.916-57.342,128-128    C384,185.308,326.692,128,256,128z M264,144.296c55.45,3.97,99.734,48.254,103.704,103.704H264V144.296z M248,144.287V248H144.287    C148.204,192.521,192.521,148.204,248,144.287z M144.288,264h92.401l-65.339,65.339C155.946,311.575,146.046,288.912,144.288,264z     M256,368c-28.048,0-53.688-10.311-73.337-27.348L259.316,264h108.397C363.61,322.121,315.165,368,256,368z" data-original="#000000" class="active-path" data-old_color="#000000" fill="#E31837"/>
	</g>
</g><g>
	<g>
		<rect x="80" y="448" width="352" height="16" data-original="#000000" class="active-path" data-old_color="#000000" fill="#E31837"/>
	</g>
</g></g> </svg>
